<svg width="1104" height="728" viewBox="0 0 1104 728" fill="none" xmlns="http://www.w3.org/2000/svg">
<path fill-rule="evenodd" clip-rule="evenodd" d="M517.643 244.512C517.889 240.998 518.947 208.209 520.818 146.146C521.286 130.612 510.526 116.988 495.306 113.844C494.286 113.633 493.775 113.528 493.775 113.528C475.406 112.243 459.056 125.099 455.971 143.253L440.22 235.928" fill="white"/>
<path d="M493.953 114.241L495.434 114.547C510.297 117.617 520.805 130.922 520.348 146.092C518.478 208.113 517.419 240.93 517.174 244.428C517.145 244.841 517.457 245.199 517.87 245.228C518.283 245.257 518.642 244.946 518.671 244.532C518.918 241.002 519.975 208.243 521.847 146.137C522.326 130.239 511.314 116.295 495.737 113.078L494.206 112.762L494.107 112.748C475.353 111.436 458.66 124.561 455.511 143.096L439.76 235.771C439.691 236.18 439.966 236.567 440.374 236.636C440.783 236.706 441.17 236.431 441.239 236.023L456.989 143.347C460.007 125.589 475.988 113.01 493.953 114.241Z" fill="#43E3F5"/>
<path fill-rule="evenodd" clip-rule="evenodd" d="M529.858 236.355L537.905 173.794C538.68 167.771 534.426 162.261 528.403 161.486C527.937 161.426 527.469 161.396 527 161.396C519.544 161.396 512.934 166.191 510.618 173.279L490 236.396L529.858 236.355Z" fill="white"/>
<path d="M530.505 236.647C530.882 236.647 531.2 236.366 531.248 235.993L539.295 173.432C540.122 166.998 535.578 161.112 529.144 160.284C528.647 160.221 528.147 160.188 527.646 160.188C519.865 160.188 512.967 165.192 510.551 172.588L489.933 235.706C489.774 236.191 490.136 236.688 490.646 236.688L530.505 236.647ZM529.844 235.148L491.68 235.187L511.977 173.053C514.191 166.275 520.514 161.688 527.646 161.688C528.083 161.688 528.519 161.716 528.953 161.772C534.565 162.494 538.529 167.629 537.807 173.241L529.844 235.148Z" fill="#43E3F5"/>
<path fill-rule="evenodd" clip-rule="evenodd" d="M331.5 389.896L407.872 365.002C416.528 362.18 422.843 354.703 424.176 345.697L440.5 235.396H529L513.341 375.544C510.583 400.23 497.285 422.518 476.871 436.671L390 496.896L331.5 389.896Z" fill="#D1F7FF"/>
<path fill-rule="evenodd" clip-rule="evenodd" d="M515 362.896C497.333 372.563 484.5 383.563 476.5 395.896C468.5 408.23 461.667 426.73 456 451.396C460.893 447.828 465.06 444.828 468.5 442.396C482.586 432.442 493.413 423.387 500 412.896C509 398.563 514 381.896 515 362.896Z" fill="#AFF2FF"/>
<path d="M418.871 356.489C418.877 356.479 418.884 356.469 418.89 356.46C418.91 356.433 418.93 356.408 418.952 356.384C421.362 353.282 422.993 349.563 423.59 345.526L439.9 235.329C439.954 234.961 440.27 234.688 440.641 234.688H529.141C529.589 234.688 529.937 235.077 529.887 235.522L523.086 296.388C523.202 296.533 523.265 296.722 523.247 296.922C523.228 297.134 523.122 297.318 522.969 297.441L514.238 375.583C511.45 400.535 497.988 423.055 477.331 437.325L390.926 497.014C390.649 497.205 390.278 497.189 390.02 496.973C378.129 487.055 368.233 474.476 360.334 459.242C352.455 444.046 343.608 420.509 333.783 388.618C333.662 388.225 333.88 387.807 334.272 387.682L407.657 364.272C412.178 362.83 416.049 360.079 418.871 356.489ZM358.917 381.395L335.436 388.886C345.148 420.338 353.895 443.564 361.666 458.552C369.378 473.426 379.004 485.725 390.544 495.455L412.563 480.244L358.917 381.395ZM360.372 380.931L413.805 479.386L476.478 436.091C496.778 422.068 510.007 399.937 512.747 375.416L521.451 297.514L433.433 289.602C433.416 289.601 433.4 289.599 433.384 289.596L425.074 345.745C424.474 349.8 422.895 353.553 420.565 356.737L472.937 394.287C473.274 394.529 473.351 394.997 473.109 395.334C472.868 395.671 472.4 395.748 472.063 395.506L419.642 357.921C416.677 361.496 412.711 364.234 408.113 365.701L360.372 380.931ZM433.604 288.112L521.618 296.023L528.303 236.188H441.289L433.604 288.112Z" fill="#43E3F5"/>
<path fill-rule="evenodd" clip-rule="evenodd" d="M194 405.396C194 405.396 170.667 417.563 124 441.896L143.858 478.355L204 437.855C197.333 416.216 194 405.396 194 405.396Z" fill="#AFF2FF"/>
<path fill-rule="evenodd" clip-rule="evenodd" d="M658 570.897L643.5 452.897L651 449.397L682 403.397L687.5 401.897C689.49 401.421 690.99 401.421 692 401.897C693.01 402.372 694.344 403.705 696 405.897V545.897C694.899 548.544 693.899 550.377 693 551.397C692.101 552.416 690.601 553.416 688.5 554.397L658 570.897ZM524.5 674.897L619.5 639.897L624 652.897L686 668.897L688.5 673.397C687.936 676.702 687.269 679.036 686.5 680.397C685.731 681.757 684.231 683.257 682 684.897L552.5 715.397C549.821 715.665 547.654 715.332 546 714.397C544.346 713.462 542.679 711.628 541 708.897L524.5 674.897Z" fill="white"/>
<path d="M193.295 404.774L123.295 441.274C122.923 441.468 122.782 441.929 122.983 442.298L142.841 478.756C143.053 479.144 143.552 479.266 143.919 479.019L204.06 438.519C204.335 438.335 204.456 437.992 204.358 437.676L194.358 405.218C194.22 404.77 193.71 404.557 193.295 404.774ZM202.761 437.586L143.764 477.315L124.665 442.251L193.19 406.52L202.761 437.586Z" fill="#43E3F5"/>
<path fill-rule="evenodd" clip-rule="evenodd" d="M408.5 529.396V530.938L340 398.396L243 439.396C244.808 498.591 253.094 537.925 267.858 557.396C282.623 576.868 308.837 583.035 346.5 575.896H401L408.5 529.396Z" fill="#D1F7FF"/>
<path d="M409.391 529.397V530.938C409.391 531.227 409.249 531.444 409.051 531.569L401.882 576.016C401.823 576.379 401.51 576.647 401.141 576.647H346.712C308.834 583.812 282.358 577.574 267.402 557.85C252.517 538.218 244.204 498.76 242.391 439.42C242.382 439.11 242.564 438.826 242.85 438.706L339.85 397.706C340.21 397.553 340.628 397.704 340.808 398.052L408.332 528.706C408.776 528.52 409.391 528.772 409.391 529.397ZM409.198 530.651L409.232 530.447L409.118 530.227C409.186 530.358 409.213 530.505 409.198 530.651ZM339.794 399.358L243.907 439.887C245.743 498.65 253.997 537.688 268.598 556.943C283.161 576.151 309.09 582.251 346.502 575.16L346.641 575.147H400.503L407.672 530.696L339.794 399.358Z" fill="#43E3F5"/>
<path fill-rule="evenodd" clip-rule="evenodd" d="M390.5 496.896L395.5 506.396C380.136 518.516 367.969 527.016 359 531.896C350.031 536.777 340.198 541.277 329.5 545.396L323.5 534.896C333.251 530.686 342.585 526.02 351.5 520.896C360.415 515.773 373.415 507.773 390.5 496.896Z" fill="#AFF2FF"/>
<path fill-rule="evenodd" clip-rule="evenodd" d="M420 700.396L657 571.896L644 453.396L409 568.896" fill="#AFF2FF"/>
<path d="M390.081 495.775C372.502 507.624 358.85 516.281 349.132 521.743C339.433 527.194 330.31 531.341 321.763 534.185C321.37 534.316 321.158 534.74 321.288 535.133C321.419 535.526 321.844 535.739 322.237 535.608C330.879 532.733 340.089 528.546 349.867 523.05C359.627 517.565 373.309 508.889 390.919 497.018C391.263 496.787 391.353 496.321 391.122 495.977C390.89 495.634 390.424 495.543 390.081 495.775Z" fill="#43E3F5"/>
<path d="M395.405 505.799C379.085 518.175 364.829 527.655 352.644 534.237C340.511 540.79 332.239 544.264 327.933 544.65C327.521 544.686 327.216 545.051 327.253 545.463C327.29 545.876 327.654 546.18 328.067 546.144C332.648 545.734 341.042 542.208 353.356 535.556C365.617 528.934 379.934 519.413 396.312 506.994C396.642 506.744 396.706 506.273 396.456 505.943C396.206 505.613 395.735 505.549 395.405 505.799Z" fill="#43E3F5"/>
<path d="M656.448 571.219C656.422 571.156 656.404 571.088 656.396 571.016L643.4 454.055L408.973 569.57C408.601 569.753 408.152 569.6 407.969 569.229C407.786 568.857 407.938 568.408 408.31 568.225L649.632 449.312L680.502 403.8C681.589 402.199 683.408 401.251 685.344 401.278C686.03 401.288 686.686 401.418 687.293 401.647C687.334 401.578 687.402 401.495 687.5 401.397C687.833 401.064 688.223 400.853 688.669 400.764C689.12 400.674 689.578 400.629 690.037 400.628C693.92 400.622 697.072 403.765 697.078 407.647L697.288 541.952C697.297 547.726 694.419 553.41 688.893 554.806L688.891 554.908C688.888 555.179 688.737 555.427 688.499 555.557L419.999 701.057C419.635 701.254 419.179 701.119 418.982 700.755C418.785 700.39 418.92 699.935 419.284 699.738L656.448 571.219ZM657.844 570.463L687.398 554.447L689.511 407.089C689.544 404.742 687.669 402.812 685.322 402.779C683.892 402.758 682.547 403.459 681.744 404.642L650.762 450.318C650.689 450.426 650.59 450.513 650.473 450.57L644.689 453.42C644.796 453.534 644.868 453.683 644.887 453.851L657.844 570.463ZM688.836 402.524C690.184 403.596 691.038 405.257 691.012 407.111L688.915 553.244C693.517 551.849 695.796 546.901 695.788 541.954L695.578 407.65C695.574 404.595 693.094 402.123 690.039 402.128C689.678 402.129 689.318 402.164 688.963 402.235C688.919 402.345 688.877 402.442 688.836 402.524Z" fill="#43E3F5"/>
<path fill-rule="evenodd" clip-rule="evenodd" d="M231 553.433L238.642 594.933L295.636 695.531C310.632 722 342.597 733.707 371.142 723.183L391.118 715.818C410.336 708.732 426.915 695.916 438.612 679.102L490.24 604.896L524.5 674.896L619.5 639.896L552.714 481.949C545.397 464.643 528.431 453.396 509.642 453.396C489.788 453.396 470.743 461.262 456.676 475.271L367.142 564.433" fill="#D1F7FF"/>
<path fill-rule="evenodd" clip-rule="evenodd" d="M453 478.897C469 491.231 485.667 500.064 503 505.397C520.333 510.731 539.5 509.564 560.5 501.897C555.813 486.368 550.646 475.535 545 469.397C538.274 462.086 525.732 455.576 518.5 453.897C509.011 451.694 491.485 454.243 477.5 460.897C470.772 464.098 462.605 470.098 453 478.897Z" fill="#AFF2FF"/>
<path d="M688.261 671.785L688.531 671.719L688.542 671.765C690.099 678.225 686.125 684.724 679.665 686.281L554.76 716.392C549.124 717.751 543.297 715.155 540.524 710.102C540.287 710.064 540.075 709.914 539.966 709.687L490.122 606.344L439.228 679.496C427.443 696.435 410.739 709.348 391.377 716.486L371.401 723.851C342.512 734.502 310.161 722.654 294.983 695.865L237.989 595.267C237.948 595.194 237.919 595.115 237.904 595.033L230.263 553.533C230.188 553.126 230.457 552.735 230.864 552.66C231.272 552.585 231.663 552.854 231.738 553.262L239.356 594.638L296.288 695.126C311.103 721.275 342.683 732.841 370.882 722.444L390.858 715.079C409.932 708.046 426.387 695.327 437.997 678.639L489.624 604.433C489.952 603.962 490.666 604.018 490.916 604.535L524.472 674.109L618.4 639.503L562.032 505.965V505.965C528.677 522.224 491.393 514.426 450.273 482.67L367.671 564.929C367.377 565.221 366.903 565.22 366.61 564.927C366.318 564.633 366.319 564.158 366.612 563.866L456.146 474.704C470.355 460.555 489.59 452.611 509.642 452.611C528.731 452.611 545.965 464.043 553.388 481.63L619.937 639.288C620.055 639.372 620.15 639.492 620.204 639.638C620.249 639.761 620.26 639.888 620.242 640.009L625.187 651.726L683.928 666.556C686.027 667.086 687.651 668.751 688.129 670.862C688.199 671.171 688.242 671.479 688.261 671.785ZM687.36 675.237C686.573 676.463 685.323 677.393 683.79 677.74L542.084 709.804C544.618 713.986 549.592 716.095 554.409 714.934L679.314 684.823C683.92 683.712 687.082 679.732 687.36 675.237ZM525.126 675.466L541.058 708.498L683.459 676.277C685.748 675.758 687.184 673.483 686.666 671.193C686.313 669.632 685.113 668.402 683.561 668.011L624.458 653.088C624.23 653.031 624.042 652.87 623.951 652.653L618.984 640.887L525.126 675.466ZM561.448 504.581L552.006 482.213C544.817 465.182 528.128 454.111 509.642 454.111C489.987 454.111 471.132 461.898 457.205 475.767L451.345 481.603C492.019 512.961 528.689 520.587 561.448 504.581V504.581Z" fill="#43E3F5"/>
<path fill-rule="evenodd" clip-rule="evenodd" d="M280 388.396L92.9828 507.83C50.4434 534.997 34.8176 589.606 56.5481 635.162L69.9595 663.279C93.7369 713.127 153.422 734.261 203.27 710.484C205.932 709.214 208.537 707.827 211.076 706.327L296.631 655.791C312.564 646.38 325.573 632.731 334.211 616.366L335.25 614.396C344.201 597.436 344.481 577.214 336.003 560.012L315 517.396C283.824 540.64 266.991 556.64 264.5 565.396C262.279 573.204 236.859 589.29 188.24 613.654C177.695 618.938 164.86 615.235 158.75 605.146C153.842 597.043 156.433 586.495 164.536 581.588C165.463 581.027 166.44 580.554 167.455 580.178L258.5 546.396" fill="#D1F7FF"/>
<path fill-rule="evenodd" clip-rule="evenodd" d="M53.9999 630.397C56.4999 637.397 67.3554 659.312 71.4999 666.397C75.8602 673.852 80.4999 680.897 86.4999 687.897C92.4416 694.829 100.436 701.683 112.5 707.897C116.536 709.977 120.87 712.143 125.5 714.397C122.386 688.119 118.886 669.785 115 659.397C111.85 650.976 108.646 642.534 104 635.897C92.3332 619.231 73.4765 602.384 47.4297 585.357C45.1432 596.717 47.3332 611.731 53.9999 630.397Z" fill="#AFF2FF"/>
<path fill-rule="evenodd" clip-rule="evenodd" d="M268 555.897L269 568.897C281.032 591.671 288.429 605.42 291.192 610.144C294.099 615.114 299.868 627.365 308.5 646.897C318.173 638.518 325.84 629.852 331.5 620.897C337.16 611.942 340.66 602.942 342 593.897C343.333 581.897 340 568.397 332 553.397C328.01 545.915 322.176 533.415 314.5 515.897C292.742 527.418 277.575 536.918 269 544.397C260.425 551.875 260.092 555.708 268 555.897Z" fill="white"/>
<path d="M334.972 559.885C343.344 576.871 343.067 596.841 334.228 613.588L333.189 615.557C324.616 631.8 311.705 645.346 295.891 654.687L210.03 705.404C207.602 706.838 205.114 708.168 202.573 709.39C153.176 733.15 93.8708 712.366 70.1113 662.969L57.1966 636.118C35.6044 591.227 50.6336 537.285 92.3281 510.026L277.41 389.024C277.757 388.798 277.854 388.333 277.628 387.986C277.401 387.639 276.936 387.542 276.59 387.769L91.5073 508.77C49.1827 536.441 33.9263 591.199 55.8448 636.769L68.7595 663.619C92.8781 713.763 153.08 734.86 203.224 710.742C205.803 709.501 208.329 708.151 210.793 706.695L296.654 655.978C312.707 646.496 325.813 632.746 334.516 616.258L335.555 614.288C344.618 597.116 344.902 576.639 336.318 559.222L315.314 516.607C315.136 516.245 314.703 516.089 314.335 516.254C289.467 527.404 274.209 535.748 268.475 541.361C265.854 543.927 264.4 547.171 263.805 551.104C263.434 553.556 263.408 555.674 263.559 559.463C263.692 562.792 263.682 563.813 263.42 564.733C261.291 572.219 235.84 588.324 187.546 612.525C177.35 617.634 164.941 614.054 159.033 604.3C154.413 596.67 156.852 586.74 164.481 582.119C165.421 581.55 166.416 581.078 167.451 580.711L262.251 547.103C262.641 546.965 262.845 546.536 262.707 546.146C262.569 545.756 262.14 545.551 261.749 545.69L166.95 579.297C165.818 579.698 164.731 580.214 163.704 580.836C155.366 585.886 152.7 596.739 157.75 605.077C164.063 615.5 177.323 619.325 188.218 613.866C237.161 589.339 262.55 573.273 264.863 565.143C265.189 563.996 265.2 562.954 265.058 559.404C264.91 555.705 264.936 553.659 265.288 551.328C265.838 547.695 267.158 544.749 269.525 542.432C275.034 537.039 289.982 528.843 314.289 517.919L334.972 559.885Z" fill="#43E3F5"/>
<path fill-rule="evenodd" clip-rule="evenodd" d="M340.142 398.296C322.67 359.481 312.17 333.695 308.642 320.938C297.204 279.586 289.222 243.516 246.499 243.516C203.776 243.516 169.142 278.15 169.142 320.874C169.142 333.044 179.642 372.065 200.642 437.938C231.613 437.814 256.67 436.271 275.813 433.311C294.956 430.351 316.399 418.679 340.142 398.296Z" fill="#D1F7FF" stroke="#43E3F5" stroke-width="1.5" stroke-linecap="round" stroke-linejoin="round"/>
<path fill-rule="evenodd" clip-rule="evenodd" d="M340 398.177C322.529 359.362 312.029 333.576 308.5 320.819C297.062 279.467 289.08 243.396 246.357 243.396C203.634 243.396 169 278.031 169 320.755C169 332.925 179.5 371.946 200.5 437.819C231.472 437.695 256.529 436.152 275.671 433.192C294.814 430.232 316.257 418.56 340 398.177Z" fill="#D1F7FF"/>
<path fill-rule="evenodd" clip-rule="evenodd" d="M340 398.177C322.529 359.362 312.029 333.576 308.5 320.819C297.062 279.467 289.08 243.396 246.357 243.396C203.634 243.396 169 278.031 169 320.755C169 332.925 179.5 371.946 200.5 437.819C231.472 437.695 256.529 436.152 275.671 433.192C294.814 430.232 316.257 418.56 340 398.177Z" stroke="#43E3F5" stroke-width="1.5" stroke-linecap="round" stroke-linejoin="round"/>
<path d="M340.684 397.869C323.229 359.09 312.738 333.326 309.223 320.619C308.763 318.955 306.724 311.529 306.175 309.548C299.445 285.262 294.788 272.861 287.291 262.442C277.823 249.284 264.872 242.646 246.357 242.646C203.22 242.646 168.25 277.617 168.25 320.755C168.25 333.041 178.751 372.065 199.785 438.047C199.885 438.359 200.175 438.569 200.503 438.569C231.509 438.444 256.601 436.9 275.786 433.933C295.088 430.948 316.649 419.212 340.489 398.746C340.741 398.529 340.82 398.172 340.684 397.869ZM275.557 432.451C256.569 435.387 231.731 436.926 201.047 437.066C180.193 371.619 169.75 332.776 169.75 320.755C169.75 278.445 204.048 244.146 246.357 244.146C264.39 244.146 276.888 250.552 286.073 263.318C293.432 273.546 298.046 285.832 304.73 309.949C305.278 311.927 307.316 319.353 307.777 321.019C311.304 333.77 321.736 359.407 339.086 397.973C315.609 418.047 294.427 429.533 275.557 432.451Z" fill="#43E3F5"/>
<path d="M210.174 356.355C210.174 356.355 251.943 372.756 315.409 350.452C316.5 350.069 317.696 349.384 319 348.396C315.718 341.831 313.718 337.331 313 334.896C310.075 324.983 309.804 318.688 306.5 312.396C304.364 308.33 303.617 301.392 301.5 294.896C300.358 291.392 298.191 285.892 295 278.396C291.829 272.102 289.662 267.935 288.5 265.896C286.72 262.774 286.719 259.726 284.399 260.064C271.855 261.89 258.329 270.025 243.819 284.471C210.101 318.041 210.174 356.355 210.174 356.355Z" fill="#43E3F5"/>
<path fill-rule="evenodd" clip-rule="evenodd" d="M237 291.896C240.5 287.896 242.437 285.392 245.5 282.396C248.563 279.401 252.5 275.896 259.5 270.896C263.167 280.563 266.833 291.063 271.5 305.396C278.5 326.896 267.416 330.287 254 315.896C245.056 306.303 239.722 298.636 237 291.896ZM276.66 290.654C279.154 290.828 280.512 301.649 281.274 303.507C281.699 304.543 281.204 305.726 280.169 306.151C279.223 306.539 278.136 306.161 277.634 305.271C274.712 300.084 273.262 296.971 273.283 295.931C273.338 293.303 274.166 290.479 276.66 290.654Z" fill="white"/>
<path d="M262.642 544.396C296.331 544.396 323.642 517.086 323.642 483.396C323.642 449.707 296.331 422.396 262.642 422.396C228.952 422.396 201.642 449.707 201.642 483.396C201.642 517.086 228.952 544.396 262.642 544.396Z" fill="#43E3F5"/>
<path d="M210.873 351.232C205.6 327.832 213.345 305.585 234.176 284.423C255.012 263.257 269.732 253.003 278.084 253.645C278.497 253.677 277.968 253.81 278 253.397C278.032 252.984 277.913 252.929 277.5 252.897C277.261 252.879 277.717 252.121 277.47 252.118C268.418 252.021 253.709 262.443 233.107 283.371C211.938 304.876 204.017 327.629 209.41 351.562C209.501 351.966 209.902 352.22 210.307 352.129C210.711 352.038 210.964 351.636 210.873 351.232Z" fill="#43E3F5"/>
<path fill-rule="evenodd" clip-rule="evenodd" d="M223.142 530.897L245.642 473.361L302.073 457.004C304.194 456.389 306.413 457.61 307.028 459.732C307.398 461.01 307.11 462.387 306.257 463.408L274.142 501.897L271.5 544.397L223.142 530.897Z" fill="white"/>
<path fill-rule="evenodd" clip-rule="evenodd" d="M245.516 473.396C237.84 481.781 232.96 487.293 230.875 489.933C219.928 503.789 220.331 509.026 225.516 512.396C235.516 518.896 245.875 531.933 252.875 519.933C257.541 511.933 255.088 496.421 245.516 473.396Z" fill="#D1F7FF"/>
<path d="M245.088 472.854C245.459 472.45 246.124 472.566 246.334 473.073C255.992 496.304 258.474 512 253.648 520.275C250.895 524.994 247.39 526.413 243.094 525.046C239.991 524.058 237.642 522.453 231.402 517.547C229.908 516.373 229.033 515.696 228.094 514.997C227.057 514.226 226.122 513.568 225.233 512.989C218.947 508.904 220.094 502.491 230.412 489.432C232.512 486.773 237.399 481.253 245.088 472.854ZM252.352 519.519C256.787 511.916 254.511 496.954 245.399 474.737C238.193 482.62 233.586 487.834 231.589 490.362C221.744 502.822 220.765 508.296 226.05 511.732C226.969 512.329 227.929 513.005 228.989 513.793C229.942 514.503 230.825 515.186 232.329 516.368C238.399 521.14 240.693 522.707 243.549 523.616C247.165 524.767 249.948 523.64 252.352 519.519ZM275.884 499.969C276.12 499.629 276.588 499.544 276.928 499.781C277.268 500.017 277.352 500.484 277.116 500.824C274.211 505.008 271.537 507.147 269 507.147C268.586 507.147 268.25 506.811 268.25 506.397C268.25 505.982 268.586 505.647 269 505.647C270.907 505.647 273.234 503.785 275.884 499.969Z" fill="#43E3F5"/>
<path d="M207.5 365.396C211.642 365.396 215 362.039 215 357.896C215 353.754 211.642 350.396 207.5 350.396C203.358 350.396 200 353.754 200 357.896C200 362.039 203.358 365.396 207.5 365.396Z" fill="white"/>
<path d="M207.142 366.146C211.698 366.146 215.392 362.453 215.392 357.896C215.392 353.34 211.698 349.646 207.142 349.646C202.585 349.646 198.892 353.34 198.892 357.896C198.892 362.453 202.585 366.146 207.142 366.146ZM207.142 364.646C203.414 364.646 200.392 361.624 200.392 357.896C200.392 354.169 203.414 351.146 207.142 351.146C210.87 351.146 213.892 354.169 213.892 357.896C213.892 361.624 210.87 364.646 207.142 364.646Z" fill="#43E3F5"/>
<path d="M207.142 362.146C209.744 362.146 211.892 360.268 211.892 357.896C211.892 355.525 209.744 353.646 207.142 353.646C204.539 353.646 202.392 355.525 202.392 357.896C202.392 360.268 204.539 362.146 207.142 362.146ZM207.142 360.646C205.326 360.646 203.892 359.391 203.892 357.896C203.892 356.402 205.326 355.146 207.142 355.146C208.957 355.146 210.392 356.402 210.392 357.896C210.392 359.391 208.957 360.646 207.142 360.646Z" fill="#43E3F5"/>
<path fill-rule="evenodd" clip-rule="evenodd" d="M271.5 540.896L268.642 568.896L226.142 593.896L192.5 611.396L176 589.396C189.796 588.597 197.629 586.43 199.5 582.896C205.037 572.437 212.87 555.27 223 531.396L271.5 540.896Z" fill="white"/>
<path d="M271.644 539.661C272.025 539.735 272.286 540.087 272.246 540.473L269.388 568.473C269.364 568.71 269.228 568.922 269.022 569.043L226.488 594.062L192.846 611.562C192.521 611.731 192.12 611.64 191.9 611.347L175.4 589.347C175.041 588.868 175.36 588.182 175.957 588.148C189.474 587.365 197.145 585.243 198.837 582.046C204.362 571.609 212.188 554.459 222.31 530.604C222.448 530.277 222.796 530.092 223.144 530.161L271.644 539.661ZM223.453 531.749C213.43 555.35 205.669 572.346 200.163 582.747C198.182 586.489 190.646 588.68 177.434 589.559L192.718 609.938L225.761 592.75L267.934 567.943L270.685 541.001L223.453 531.749ZM268.261 567.75L267.896 568.32L267.934 567.943L268.261 567.75Z" fill="#43E3F5"/>
<path fill-rule="evenodd" clip-rule="evenodd" d="M89 336.396C84.0294 336.396 80 332.367 80 327.396C80 322.426 84.0294 318.396 89 318.396C93.9706 318.396 98 322.426 98 327.396C98 332.367 93.9706 336.396 89 336.396ZM177 358.896L179.358 367.896C178.793 368.088 178.233 368.296 177.679 368.52C161.868 374.92 154.239 392.925 160.638 408.735L165.358 420.396L156.358 425.396L151.034 408.063C145.291 389.366 154.285 369.307 172.066 361.158L177 358.896Z" fill="white"/>
<path d="M109.742 369.507C109.765 369.353 109.739 369.196 109.669 369.057L92.6687 335.557C92.4813 335.188 92.0299 335.04 91.6605 335.228C91.2912 335.415 91.1437 335.867 91.3311 336.236L108.223 369.523L106.258 382.787C106.208 383.126 106.394 383.456 106.71 383.589L120.423 389.328L142.839 430.984C143.036 431.349 143.491 431.485 143.855 431.289C144.22 431.093 144.357 430.638 144.16 430.273L121.618 388.383C121.537 388.231 121.406 388.113 121.247 388.046L107.827 382.43L109.742 369.507Z" fill="#43E3F5"/>
<path d="M88.6416 337.146C83.2568 337.146 78.8916 332.781 78.8916 327.396C78.8916 322.012 83.2568 317.646 88.6416 317.646C94.0264 317.646 98.3916 322.012 98.3916 327.396C98.3916 332.781 94.0264 337.146 88.6416 337.146ZM88.6416 335.646C93.198 335.646 96.8916 331.953 96.8916 327.396C96.8916 322.84 93.198 319.146 88.6416 319.146C84.0853 319.146 80.3916 322.84 80.3916 327.396C80.3916 331.953 84.0853 335.646 88.6416 335.646ZM176.329 358.215C176.753 358.021 177.249 358.256 177.367 358.706L179.726 367.706C179.825 368.087 179.614 368.481 179.241 368.607C178.689 368.794 178.142 368.997 177.602 369.215C162.175 375.46 154.731 393.027 160.975 408.454L165.695 420.115C165.837 420.466 165.695 420.868 165.364 421.052L156.364 426.052C155.947 426.284 155.423 426.073 155.283 425.617L149.959 408.283C144.105 389.227 153.272 368.782 171.395 360.476L176.329 358.215ZM172.02 361.84C154.581 369.833 145.76 389.506 151.393 407.843L156.445 424.291L164.056 420.063L159.585 409.017C153.03 392.822 160.844 374.38 177.039 367.825C177.39 367.683 177.743 367.547 178.099 367.418L176.142 359.95L172.02 361.84Z" fill="#43E3F5"/>
<path d="M107.681 630.728C120.779 648.583 129.122 677.113 132.747 716.328L131.253 716.466C127.598 676.925 119.135 648.383 105.901 630.848C95.0838 616.515 83.4686 604.71 71.5095 595.192C62.7318 588.206 54.5186 583.028 47.3242 579.418L47.9969 578.078C55.2814 581.733 63.5822 586.966 72.4435 594.018C84.3795 603.518 95.9704 615.272 106.773 629.514L157.143 602.237C157.507 602.04 157.962 602.175 158.16 602.54C158.357 602.904 158.222 603.359 157.857 603.556L107.681 630.728ZM179.233 616.548C179.035 616.184 179.169 615.728 179.532 615.53C179.896 615.331 180.351 615.465 180.55 615.829L225.158 697.537C225.357 697.901 225.223 698.356 224.86 698.555C224.496 698.753 224.04 698.62 223.842 698.256L179.233 616.548ZM162.866 582.066C163.049 582.438 162.895 582.887 162.523 583.07C162.152 583.252 161.702 583.099 161.52 582.727L117.327 492.727C117.144 492.355 117.298 491.906 117.67 491.723C118.041 491.541 118.491 491.694 118.673 492.066L162.866 582.066Z" fill="#43E3F5"/>
<path d="M201 438.396L223.142 483.396" stroke="#43E3F5" stroke-width="1.5" stroke-linecap="round" stroke-linejoin="round"/>
<path d="M268.892 568.646L308.5 646.549" stroke="#43E3F5" stroke-width="1.5" stroke-linecap="round" stroke-linejoin="round"/>
<path d="M894.297 212.175C894.695 212.062 895.11 212.294 895.222 212.693C895.334 213.092 895.102 213.506 894.703 213.618L831.061 231.546C815.512 235.926 806.457 252.082 810.837 267.631C811.858 271.255 813.569 274.648 815.877 277.624L825.209 289.659C834.256 301.327 832.132 318.12 820.464 327.168C815.225 331.23 808.663 333.201 802.052 332.697L769.96 330.253C753.668 329.013 737.761 335.615 727.136 348.027L711.57 366.21C711.3 366.525 710.827 366.562 710.512 366.292C710.198 366.023 710.161 365.55 710.43 365.235L725.996 347.052C736.933 334.276 753.305 327.481 770.074 328.758L802.166 331.202C808.406 331.677 814.599 329.817 819.545 325.982C830.558 317.442 832.563 301.592 824.023 290.578L814.691 278.543C812.266 275.415 810.467 271.848 809.394 268.038C804.789 251.691 814.308 234.707 830.654 230.102L894.297 212.175ZM784 429.396V416.396C784 415.844 784.448 415.396 785 415.396C785.552 415.396 786 415.844 786 416.396V429.396H799C799.552 429.396 800 429.844 800 430.396C800 430.949 799.552 431.396 799 431.396H786V444.396C786 444.949 785.552 445.396 785 445.396C784.448 445.396 784 444.949 784 444.396V431.396H771C770.448 431.396 770 430.949 770 430.396C770 429.844 770.448 429.396 771 429.396H784ZM316 109.396V96.3965C316 95.8442 316.448 95.3965 317 95.3965C317.552 95.3965 318 95.8442 318 96.3965V109.396H331C331.552 109.396 332 109.844 332 110.396C332 110.949 331.552 111.396 331 111.396H318V124.396C318 124.949 317.552 125.396 317 125.396C316.448 125.396 316 124.949 316 124.396V111.396H303C302.448 111.396 302 110.949 302 110.396C302 109.844 302.448 109.396 303 109.396H316ZM740 167.396V154.396C740 153.844 740.448 153.396 741 153.396C741.552 153.396 742 153.844 742 154.396V167.396H755C755.552 167.396 756 167.844 756 168.396C756 168.949 755.552 169.396 755 169.396H742V182.396C742 182.949 741.552 183.396 741 183.396C740.448 183.396 740 182.949 740 182.396V169.396H727C726.448 169.396 726 168.949 726 168.396C726 167.844 726.448 167.396 727 167.396H740ZM11 429.396V419.396C11 418.844 11.4477 418.396 12 418.396C12.5523 418.396 13 418.844 13 419.396V429.396H23C23.5523 429.396 24 429.844 24 430.396C24 430.949 23.5523 431.396 23 431.396H13V441.396C13 441.949 12.5523 442.396 12 442.396C11.4477 442.396 11 441.949 11 441.396V431.396H1C0.447715 431.396 0 430.949 0 430.396C0 429.844 0.447715 429.396 1 429.396H11ZM624.5 284.396V274.896C624.5 274.344 624.948 273.896 625.5 273.896C626.052 273.896 626.5 274.344 626.5 274.896V284.396H636C636.552 284.396 637 284.844 637 285.396C637 285.949 636.552 286.396 636 286.396H626.5V295.896C626.5 296.449 626.052 296.896 625.5 296.896C624.948 296.896 624.5 296.449 624.5 295.896V286.396H615C614.448 286.396 614 285.949 614 285.396C614 284.844 614.448 284.396 615 284.396H624.5ZM370.5 254.896V245.396C370.5 244.844 370.948 244.396 371.5 244.396C372.052 244.396 372.5 244.844 372.5 245.396V254.896H382C382.552 254.896 383 255.344 383 255.896C383 256.449 382.552 256.896 382 256.896H372.5V266.396C372.5 266.949 372.052 267.396 371.5 267.396C370.948 267.396 370.5 266.949 370.5 266.396V256.896H361C360.448 256.896 360 256.449 360 255.896C360 255.344 360.448 254.896 361 254.896H370.5Z" fill="#43E3F5"/>
<path fill-rule="evenodd" clip-rule="evenodd" d="M272.168 472.878C267.31 469.396 263.336 468.526 260.245 470.267C255.609 472.878 249.647 478.101 252.959 484.63C256.271 491.158 258.92 496.381 262.232 496.381C265.544 496.381 271.505 497.034 274.817 489.852C277.025 485.065 276.142 479.407 272.168 472.878Z" fill="#D1F7FF"/>
<path fill-rule="evenodd" clip-rule="evenodd" d="M271.896 475.881C271.554 479.422 270.374 481.704 268.359 482.726C266.596 483.621 263.838 484.141 260.086 484.289C258.43 484.354 257.036 483.064 256.971 481.409C256.948 480.841 257.087 480.28 257.372 479.788C259.435 476.223 261.264 474.036 262.859 473.226C264.532 472.377 266.716 472.18 269.409 472.634C270.962 472.895 272.048 474.313 271.896 475.881Z" fill="white"/>
<path d="M270.653 477.067C270.149 477.858 269.15 478.397 268 478.397C266.343 478.397 265 477.278 265 475.897C265 474.55 266.28 473.451 267.882 473.399C265.819 473.178 264.141 473.406 262.839 474.066C261.409 474.792 259.658 476.886 257.662 480.335C257.449 480.703 257.345 481.125 257.362 481.55C257.41 482.792 258.456 483.759 259.698 483.71C263.352 483.567 266.014 483.064 267.661 482.229C269.211 481.442 270.219 479.744 270.653 477.067ZM269.243 473.621C269.492 473.701 269.721 473.823 269.922 473.978C269.717 473.835 269.489 473.715 269.243 473.621ZM272.285 476.124C271.919 479.896 270.621 482.409 268.339 483.566C266.461 484.519 263.608 485.058 259.757 485.209C257.687 485.29 255.944 483.678 255.863 481.609C255.835 480.9 256.009 480.198 256.364 479.584C258.494 475.902 260.402 473.621 262.161 472.729C263.994 471.798 266.336 471.586 269.175 472.065C271.116 472.392 272.474 474.165 272.285 476.124Z" fill="#43E3F5"/>
<path fill-rule="evenodd" clip-rule="evenodd" d="M303.5 456.656C301.16 456.071 298.692 456.474 296.095 457.863L296.095 457.863C295.608 458.124 295.425 458.73 295.685 459.216C295.74 459.319 295.813 459.412 295.899 459.489C296.891 460.378 298.091 460.882 299.5 461.003C301.366 461.162 303.533 461.162 306 461.003C307 458.772 306.167 457.323 303.5 456.656Z" fill="#D1F7FF"/>
<path d="M304.182 455.824C301.651 455.191 298.994 455.624 296.241 457.096C295.389 457.552 295.068 458.613 295.524 459.465C295.62 459.645 295.747 459.806 295.899 459.943C297.014 460.941 298.368 461.511 299.936 461.645C301.843 461.808 304.046 461.808 306.548 461.646C306.826 461.628 307.071 461.458 307.184 461.204C308.386 458.523 307.279 456.598 304.182 455.824ZM300.064 460.15C298.815 460.043 297.768 459.603 296.9 458.826C296.878 458.806 296.86 458.783 296.847 458.757C296.781 458.636 296.827 458.484 296.949 458.419C299.39 457.113 301.67 456.742 303.818 457.279C305.875 457.793 306.513 458.657 305.981 460.178C303.744 460.305 301.771 460.296 300.064 460.15Z" fill="#43E3F5"/>
<path fill-rule="evenodd" clip-rule="evenodd" d="M925 167.396L915 169.896L940.5 194.896L943.5 184.896" fill="white"/>
<path d="M541.5 676.396C545.642 676.396 549 673.039 549 668.896C549 664.754 545.642 661.396 541.5 661.396C537.358 661.396 534 664.754 534 668.896C534 673.039 537.358 676.396 541.5 676.396Z" fill="white"/>
<path d="M541.142 677.146C545.698 677.146 549.392 673.453 549.392 668.896C549.392 664.34 545.698 660.646 541.142 660.646C536.585 660.646 532.892 664.34 532.892 668.896C532.892 673.453 536.585 677.146 541.142 677.146ZM541.142 675.646C537.414 675.646 534.392 672.624 534.392 668.896C534.392 665.169 537.414 662.146 541.142 662.146C544.87 662.146 547.892 665.169 547.892 668.896C547.892 672.624 544.87 675.646 541.142 675.646Z" fill="#43E3F5"/>
<path d="M654.5 557.396C658.642 557.396 662 554.039 662 549.896C662 545.754 658.642 542.396 654.5 542.396C650.358 542.396 647 545.754 647 549.896C647 554.039 650.358 557.396 654.5 557.396Z" fill="white"/>
<path d="M654.5 558.146C659.056 558.146 662.75 554.453 662.75 549.896C662.75 545.34 659.056 541.646 654.5 541.646C649.944 541.646 646.25 545.34 646.25 549.896C646.25 554.453 649.944 558.146 654.5 558.146ZM654.5 556.646C650.772 556.646 647.75 553.624 647.75 549.896C647.75 546.169 650.772 543.146 654.5 543.146C658.228 543.146 661.25 546.169 661.25 549.896C661.25 553.624 658.228 556.646 654.5 556.646Z" fill="#43E3F5"/>
<path d="M541.142 673.146C543.744 673.146 545.892 671.268 545.892 668.896C545.892 666.525 543.744 664.646 541.142 664.646C538.539 664.646 536.392 666.525 536.392 668.896C536.392 671.268 538.539 673.146 541.142 673.146ZM541.142 671.646C539.326 671.646 537.892 670.391 537.892 668.896C537.892 667.402 539.326 666.146 541.142 666.146C542.957 666.146 544.392 667.402 544.392 668.896C544.392 670.391 542.957 671.646 541.142 671.646Z" fill="#43E3F5"/>
<path d="M654.5 554.146C657.103 554.146 659.25 552.268 659.25 549.896C659.25 547.525 657.103 545.646 654.5 545.646C651.897 545.646 649.75 547.525 649.75 549.896C649.75 552.268 651.897 554.146 654.5 554.146ZM654.5 552.646C652.684 552.646 651.25 551.391 651.25 549.896C651.25 548.402 652.684 547.146 654.5 547.146C656.316 547.146 657.75 548.402 657.75 549.896C657.75 551.391 656.316 552.646 654.5 552.646Z" fill="#43E3F5"/>
<path d="M214.136 358.45C221.991 365.622 239.145 368.818 265.661 368.146C292.123 367.476 310.914 363.45 322.058 356.021C322.402 355.791 322.495 355.325 322.266 354.981C322.036 354.636 321.57 354.543 321.226 354.773C310.369 362.01 291.827 365.983 265.623 366.647C239.472 367.309 222.626 364.171 215.147 357.343C214.841 357.063 214.367 357.085 214.088 357.391C213.808 357.697 213.83 358.171 214.136 358.45Z" fill="#43E3F5"/>
<path fill-rule="evenodd" clip-rule="evenodd" d="M1078.27 20.4955C1053.44 29.0405 1028.12 44.1984 1002.33 65.9695C975.723 88.426 947.024 119.255 916.233 158.457L950.837 191.874C989.171 159.307 1018.98 129.55 1040.26 102.603C1060.91 76.4683 1075.28 50.7544 1083.4 25.4615C1083.86 24.0257 1083.46 22.4531 1082.38 21.4057C1081.29 20.3552 1079.7 20.0036 1078.27 20.4955Z" fill="#D1F7FF"/>
<path fill-rule="evenodd" clip-rule="evenodd" d="M1039 39.3967L1065.5 63.8967C1079.83 37.8967 1085.5 23.5634 1082.5 20.8967C1079.5 18.2301 1065 24.3967 1039 39.3967Z" fill="#AFF2FF"/>
<path fill-rule="evenodd" clip-rule="evenodd" d="M936.262 191.292L920.5 210.397L922 195.897L909.5 198.897L914.5 187.897H900L918.168 173.553L913.518 168.994L924.818 166.169L925.182 167.624L916.482 169.799L940.138 192.992L942.782 184.181L944.218 184.612L940.862 195.801L936.262 191.292Z" fill="#43E3F5"/>
<path d="M1001.83 65.0603C975.181 87.5532 946.449 118.419 915.628 157.658C915.391 157.96 915.42 158.394 915.697 158.661L950.301 192.078C950.579 192.346 951.014 192.359 951.308 192.11C989.677 159.513 1019.52 129.722 1040.84 102.732C1061.53 76.5302 1075.95 50.7384 1084.1 25.3546C1084.64 23.6468 1084.17 21.776 1082.88 20.5302C1081.59 19.2838 1079.71 18.8666 1078.02 19.4504C1053.08 28.0276 1027.69 43.2328 1001.83 65.0603ZM917.226 158.052C947.83 119.141 976.355 88.5252 1002.8 66.2066C1028.52 44.4921 1053.76 29.3814 1078.5 20.8688C1079.67 20.4685 1080.96 20.7546 1081.84 21.6092C1082.72 22.4581 1083.04 23.7327 1082.67 24.8964C1074.58 50.0984 1060.25 75.7343 1039.66 101.802C1018.51 128.585 988.904 158.161 950.854 190.526L917.226 158.052Z" fill="#43E3F5"/>
<path fill-rule="evenodd" clip-rule="evenodd" d="M967.691 105.396L963.23 113.338L916.743 158.155L881.951 160.224L879 157.374L967.691 105.396ZM1002.79 139.002L952.366 228.587L949.465 225.686L950.926 190.864L994.925 143.601L1002.79 139.002Z" fill="white"/>
<path d="M966.824 105.106C967.485 104.719 968.232 105.454 967.858 106.121L963.397 114.062L963.263 114.235L916.776 159.052C916.647 159.176 916.478 159.25 916.3 159.261L881.508 161.33C881.298 161.342 881.093 161.266 880.942 161.121L877.991 158.271C877.634 157.926 877.705 157.335 878.133 157.084L966.824 105.106ZM879.744 157.879L881.748 159.813L915.934 157.78L962.143 113.231L965.193 107.801L879.744 157.879ZM962.222 113.155L962.089 113.328L962.143 113.231L962.222 113.155ZM1001.92 138.712C1002.58 138.325 1003.33 139.06 1002.95 139.727L952.531 229.312C952.288 229.745 951.699 229.826 951.347 229.474L948.447 226.574C948.298 226.425 948.219 226.221 948.228 226.012L949.689 191.189C949.697 191.01 949.768 190.84 949.89 190.709L993.889 143.447L994.059 143.311L1001.92 138.712ZM994.911 144.55L951.176 191.529L949.74 225.746L951.709 227.715L1000.29 141.405L994.911 144.55Z" fill="#43E3F5"/>
<path d="M1024 97.3965C1032.28 97.3965 1039 90.6808 1039 82.3965C1039 74.1122 1032.28 67.3965 1024 67.3965C1015.72 67.3965 1009 74.1122 1009 82.3965C1009 90.6808 1015.72 97.3965 1024 97.3965Z" fill="white"/>
<path d="M1024.2 97.7969C1032.9 97.7969 1039.95 90.7454 1039.95 82.0469C1039.95 73.3484 1032.9 66.2969 1024.2 66.2969C1015.5 66.2969 1008.45 73.3484 1008.45 82.0469C1008.45 90.7454 1015.5 97.7969 1024.2 97.7969ZM1024.2 96.2969C1016.33 96.2969 1009.95 89.9169 1009.95 82.0469C1009.95 74.1768 1016.33 67.7969 1024.2 67.7969C1032.07 67.7969 1038.45 74.1768 1038.45 82.0469C1038.45 89.9169 1032.07 96.2969 1024.2 96.2969Z" fill="#43E3F5"/>
<path d="M1024 90.1474C1019.72 90.1474 1016.25 86.6776 1016.25 82.3974C1016.25 78.1172 1019.72 74.6474 1024 74.6474C1028.28 74.6474 1031.75 78.1172 1031.75 82.3974C1031.75 86.6776 1028.28 90.1474 1024 90.1474ZM1024 88.6474C1027.45 88.6474 1030.25 85.8491 1030.25 82.3974C1030.25 78.9456 1027.45 76.1474 1024 76.1474C1020.55 76.1474 1017.75 78.9456 1017.75 82.3974C1017.75 85.8491 1020.55 88.6474 1024 88.6474ZM1038.49 39.4451L1039.51 38.3496L1066.24 63.3496L1065.22 64.4451L1038.49 39.4451Z" fill="#43E3F5"/>
<path d="M514.6 357.263C493.925 370.28 479.683 382.678 471.874 394.484C464.073 406.278 457.046 426.187 450.768 454.234L452.232 454.561C458.474 426.678 465.447 406.92 473.125 395.311C480.797 383.713 494.888 371.445 515.4 358.532L514.6 357.263Z" fill="#43E3F5"/>
<path fill-rule="evenodd" clip-rule="evenodd" d="M224.891 526.945C232.952 529.812 240.41 531.991 247.265 533.481C253.972 534.939 261.853 536.199 270.907 537.26C272.827 537.485 274.202 539.224 273.977 541.144C273.959 541.292 273.933 541.439 273.897 541.584L273.799 541.977C273.303 543.966 271.384 545.258 269.354 544.969C260.936 543.772 253.073 542.443 245.765 540.981C238.351 539.498 230.868 536.938 223.315 533.301C221.67 532.508 220.807 530.669 221.25 528.897C221.624 527.402 223.138 526.494 224.633 526.867C224.72 526.889 224.806 526.915 224.891 526.945Z" fill="white"/>
<path d="M254.523 536.295C251.961 535.843 249.534 535.368 247.242 534.87C244.448 534.262 241.538 533.478 238.511 532.518L237.43 537.2C240.457 538.104 243.432 538.848 246.354 539.433C248.675 539.897 251.053 540.348 253.487 540.786L254.523 536.295ZM256.003 536.551L254.965 541.048C259.719 541.885 264.684 542.671 269.861 543.407C271.129 543.587 272.329 542.78 272.639 541.537L272.737 541.144C272.757 541.061 272.773 540.977 272.783 540.892C272.911 539.795 272.126 538.801 271.028 538.672C265.604 538.037 260.595 537.33 256.003 536.551ZM237.079 532.053C233.179 530.76 229.09 529.182 224.811 527.318C224.717 527.277 224.619 527.244 224.52 527.219C223.53 526.972 222.528 527.574 222.281 528.564L222.124 529.196C221.828 530.381 222.433 531.607 223.554 532.094C227.792 533.933 231.939 535.488 235.993 536.76L237.079 532.053ZM225.41 525.942C233.494 529.464 240.877 531.951 247.56 533.404C254.268 534.862 262.148 536.122 271.203 537.182C273.123 537.407 274.497 539.147 274.272 541.067C274.255 541.215 274.228 541.362 274.192 541.507L274.094 541.9C273.598 543.888 271.679 545.181 269.65 544.892C261.232 543.695 253.369 542.366 246.06 540.904C238.674 539.427 230.973 536.949 222.957 533.47C221.163 532.691 220.195 530.73 220.668 528.833L220.826 528.201C221.273 526.408 223.089 525.316 224.883 525.763C225.063 525.808 225.239 525.868 225.41 525.942Z" fill="#43E3F5"/>
<path fill-rule="evenodd" clip-rule="evenodd" d="M136 444.896L143 441.896L150 456.396L143 460.896L136 444.896ZM159.5 450.396C157.633 450.396 155.755 450.088 154.5 448.896C153.157 447.621 152.5 445.395 152.5 443.396C152.5 441.797 153.097 439.575 154 438.396C155.279 436.727 157.234 436.396 159.5 436.396C161.518 436.396 163.223 436.531 164.5 437.896C165.67 439.148 166.5 441.548 166.5 443.396C166.5 445.704 165.723 448.121 164 449.396C162.837 450.257 161.058 450.396 159.5 450.396Z" fill="#D1F7FF"/>
<path d="M135.51 444.505L143.864 440.925L151.464 456.668L143.166 462.003L135.51 444.505ZM143.835 459.79L149.536 456.125L143.136 442.868L137.49 445.288L143.835 459.79ZM160 451.146C157.606 451.146 155.773 450.664 154.484 449.44C153.055 448.084 152.25 445.743 152.25 443.396C152.25 441.559 152.932 439.21 153.905 437.94C155.217 436.227 157.074 435.646 160 435.646C162.786 435.646 164.258 436.005 165.548 437.384C166.83 438.755 167.75 441.324 167.75 443.396C167.75 446.132 166.77 448.65 164.946 449.999C163.78 450.862 162.215 451.146 160 451.146ZM160 449.646C161.913 449.646 163.223 449.409 164.054 448.794C165.446 447.764 166.25 445.698 166.25 443.396C166.25 441.689 165.462 439.488 164.452 438.409C163.528 437.421 162.404 437.146 160 437.146C157.495 437.146 156.059 437.595 155.095 438.853C154.339 439.84 153.75 441.869 153.75 443.396C153.75 445.363 154.42 447.311 155.516 448.353C156.468 449.256 157.954 449.646 160 449.646Z" fill="#43E3F5"/>
<path d="M528 234.396H441C439.343 234.396 438 235.74 438 237.396C438 239.053 439.343 240.396 441 240.396H528C529.657 240.396 531 239.053 531 237.396C531 235.74 529.657 234.396 528 234.396Z" fill="white"/>
<path d="M441 234.396H528C529.657 234.396 531 235.74 531 237.396C531 239.053 529.657 240.396 528 240.396H441C439.343 240.396 438 239.053 438 237.396C438 235.74 439.343 234.396 441 234.396ZM441 235.896C440.172 235.896 439.5 236.568 439.5 237.396C439.5 238.225 440.172 238.896 441 238.896H528C528.828 238.896 529.5 238.225 529.5 237.396C529.5 236.568 528.828 235.896 528 235.896H441Z" fill="#43E3F5"/>
<path d="M310.253 645.135L270.756 567.617C270.192 566.51 268.837 566.07 267.73 566.634C266.623 567.198 266.182 568.553 266.747 569.66L306.244 647.178C306.808 648.285 308.163 648.725 309.27 648.161C310.377 647.597 310.817 646.242 310.253 645.135Z" fill="white" stroke="#43E3F5" stroke-width="1.5"/>
<path fill-rule="evenodd" clip-rule="evenodd" d="M286.117 445.705C283.268 448.119 269.916 437.868 267.06 436.659C265.525 436.01 264.807 434.239 265.456 432.704C266.052 431.296 267.605 430.556 269.073 430.98C277.845 433.512 282.79 435.349 283.908 436.489C286.742 439.381 288.966 443.29 286.117 445.705Z" fill="white"/>
<path fill-rule="evenodd" clip-rule="evenodd" d="M353.327 513.873L383.194 494.955C383.661 494.659 384.279 494.798 384.574 495.264C384.581 495.276 384.588 495.287 384.595 495.299L396.024 515.073C396.29 515.534 396.148 516.124 395.7 516.413L366.365 535.339C365.901 535.638 365.282 535.505 364.983 535.041C364.978 535.033 364.972 535.025 364.967 535.016L353.007 515.235C352.725 514.77 352.868 514.164 353.327 513.873Z" fill="white"/>
<path d="M351.922 514.176L383.3 494.569C383.768 494.276 384.385 494.419 384.678 494.887L397.396 515.24C397.689 515.709 397.546 516.326 397.078 516.618L365.7 536.225C365.232 536.518 364.615 536.376 364.322 535.907L351.604 515.554C351.311 515.086 351.454 514.469 351.922 514.176ZM353.141 515.183L365.329 534.688L395.859 515.611L383.671 496.106L353.141 515.183Z" fill="#43E3F5"/>
<path d="M359.48 514.482L379.833 501.764C380.301 501.471 380.918 501.613 381.211 502.082L389.69 515.651C389.982 516.119 389.84 516.736 389.372 517.029L369.018 529.747C368.55 530.039 367.933 529.897 367.64 529.429L359.162 515.86C358.869 515.391 359.012 514.774 359.48 514.482ZM368.648 528.21L388.153 516.021L380.204 503.301L360.699 515.489L368.648 528.21Z" fill="#43E3F5"/>
</svg>
