<svg width="60" height="60" viewBox="0 0 60 60" fill="none" xmlns="http://www.w3.org/2000/svg">
<path d="M52.914 18.543H41.382C40.743 12.819 35.889 8.35799 30 8.35799C24.114 8.35799 19.257 12.819 18.621 18.543H7.08596C6.38696 18.543 5.81396 19.116 5.81396 19.815V50.367C5.81396 51.063 6.38696 51.639 7.08596 51.639H52.914C53.616 51.639 54.189 51.066 54.189 50.367V19.815C54.186 19.116 53.616 18.543 52.914 18.543ZM40.185 27.453C40.887 27.453 41.46 28.026 41.46 28.725C41.46 29.424 40.887 30 40.185 30C39.489 30 38.913 29.427 38.913 28.728C38.913 28.029 39.486 27.453 40.185 27.453ZM30 10.905C34.479 10.905 38.187 14.232 38.808 18.543H21.192C21.813 14.232 25.518 10.905 30 10.905ZM19.815 27.453C20.514 27.453 21.087 28.026 21.087 28.725C21.087 29.424 20.514 30 19.815 30C19.116 30 18.543 29.427 18.543 28.728C18.543 28.029 19.116 27.453 19.815 27.453ZM51.642 49.095H8.35796V21.087H18.543V25.128C17.061 25.656 15.996 27.063 15.996 28.725C15.996 30.834 17.709 32.544 19.815 32.544C21.921 32.544 23.634 30.834 23.634 28.725C23.634 27.063 22.572 25.656 21.087 25.128V21.087H38.91V25.128C37.425 25.656 36.363 27.063 36.363 28.725C36.363 30.834 38.073 32.544 40.179 32.544C42.285 32.544 43.998 30.834 43.998 28.725C43.998 27.063 42.936 25.656 41.451 25.128V21.087H51.636V49.095H51.642Z" fill="black"/>
</svg>
