<svg width="60" height="60" viewBox="0 0 60 60" fill="none" xmlns="http://www.w3.org/2000/svg">
<path d="M36.225 32.436C40.299 29.877 42.951 24.915 42.951 20.325C42.951 13.782 37.566 6.47102 30.357 6.47102C23.148 6.47102 17.763 13.782 17.763 20.325C17.763 24.915 20.415 29.88 24.489 32.436C14.823 35.031 7.68896 43.857 7.68896 54.33C7.68896 55.02 8.25596 55.59 8.94896 55.59H51.768C52.458 55.59 53.028 55.023 53.028 54.33C53.028 43.857 45.891 35.031 36.225 32.436ZM20.283 20.325C20.283 13.839 25.602 8.99102 30.357 8.99102C35.112 8.99102 40.434 13.839 40.434 20.325C40.434 26.811 35.112 31.659 30.357 31.659C25.602 31.659 20.283 26.811 20.283 20.325ZM10.245 53.07C10.899 42.54 19.671 34.179 30.357 34.179C41.043 34.179 49.815 42.54 50.472 53.07H10.245Z" fill="black"/>
</svg>
