<svg width="307" height="74" viewBox="0 0 307 74" fill="none" xmlns="http://www.w3.org/2000/svg">
<line x1="2.5" y1="3" x2="2.5" y2="41" stroke="black" stroke-width="5"/>
<line x1="50.5" y1="3" x2="50.5" y2="41" stroke="black" stroke-width="5"/>
<line x1="162.5" y1="3" x2="162.5" y2="72" stroke="black" stroke-width="5"/>
<line x1="112.5" y1="3" x2="112.5" y2="73" stroke="black" stroke-width="5"/>
<line x1="215.5" y1="3" x2="215.5" y2="73" stroke="black" stroke-width="5"/>
<line x1="2.74621" y1="4.06702" x2="26.2737" y2="38.3304" stroke="black" stroke-width="5"/>
<line y1="-2.5" x2="43.3985" y2="-2.5" transform="matrix(-0.547391 0.836877 -0.56202 -0.827124 47.9688 3.42639)" stroke="black" stroke-width="5"/>
<line x1="2.5" y1="54" x2="2.5" y2="73" stroke="black" stroke-width="5"/>
<line x1="50.5" y1="54" x2="50.5" y2="73" stroke="black" stroke-width="5"/>
<line x1="97" y1="41.5" x2="69" y2="41.5" stroke="black" stroke-width="5"/>
<line x1="239.275" y1="72.1608" x2="215.291" y2="42.6943" stroke="black" stroke-width="5"/>
<line x1="188" y1="41.5" x2="163" y2="41.5" stroke="black" stroke-width="5"/>
<line x1="200" y1="5.5" x2="163" y2="5.5" stroke="black" stroke-width="5"/>
<path d="M198.5 71.5L160 71.5" stroke="black" stroke-width="5"/>
<line x1="55.8882" y1="71.8126" x2="79.8725" y2="3.28576" stroke="black" stroke-width="5"/>
<line x1="94.9839" y1="39.9812" x2="80.5933" y2="3.66202" stroke="black" stroke-width="5"/>
<line y1="-2.5" x2="31" y2="-2.5" transform="matrix(1 -5.24537e-08 -5.24537e-08 -1 262 35)" stroke="black" stroke-width="5"/>
<line x1="304.674" y1="72.1847" x2="276.578" y2="0.916861" stroke="black" stroke-width="5"/>
<line y1="-2.5" x2="39.8694" y2="-2.5" transform="matrix(0.412508 -0.910954 -0.910954 -0.412508 245.326 71.2678)" stroke="black" stroke-width="5"/>
<path d="M114 4C160.514 4 158.137 71 114 71" stroke="black" stroke-width="5"/>
<path d="M217 4C246.828 4 245.834 41 217 41" stroke="black" stroke-width="5"/>
</svg>
